<svg width="150" height="47" viewBox="0 0 150 47" fill="none" xmlns="http://www.w3.org/2000/svg">
<path d="M130.515 26.08V25.68H139.675V34.64C138.955 35.3333 138.142 35.92 137.235 36.4C136.355 36.88 135.422 37.28 134.435 37.6C133.475 37.8933 132.502 38.12 131.515 38.28C130.555 38.44 129.622 38.52 128.715 38.52C127.142 38.52 125.662 38.3067 124.275 37.88C122.888 37.4267 121.635 36.7867 120.515 35.96C119.422 35.1067 118.475 34.0667 117.675 32.84C116.902 31.6133 116.302 30.2267 115.875 28.68C115.448 27.1067 115.235 25.36 115.235 23.44C115.235 21.2533 115.555 19.28 116.195 17.52C116.862 15.7333 117.782 14.2133 118.955 12.96C120.155 11.68 121.582 10.7067 123.235 10.04C124.915 9.34667 126.782 9 128.835 9C130.008 9 131.115 9.09333 132.155 9.28C133.195 9.44 134.182 9.68 135.115 10C136.048 10.32 136.915 10.6933 137.715 11.12C138.515 11.5467 139.248 12.0133 139.915 12.52L137.795 22.56H137.115L136.515 17.64C136.328 16.1733 135.995 14.92 135.515 13.88C135.035 12.84 134.422 12.0133 133.675 11.4C132.955 10.76 132.102 10.2933 131.115 10C130.155 9.70667 129.102 9.56 127.955 9.56C126.728 9.56 125.608 9.88 124.595 10.52C123.608 11.16 122.755 12.0533 122.035 13.2C121.315 14.3467 120.755 15.68 120.355 17.2C119.982 18.72 119.795 20.36 119.795 22.12C119.795 23.64 119.928 25.16 120.195 26.68C120.488 28.2 120.902 29.64 121.435 31C121.968 32.3333 122.648 33.52 123.475 34.56C124.302 35.6 125.275 36.4267 126.395 37.04C127.515 37.6267 128.755 37.92 130.115 37.92C130.862 37.92 131.648 37.84 132.475 37.68C133.328 37.4933 134.208 37.2133 135.115 36.84V26.84L130.515 26.08Z" fill="#3636FF"/>
<path d="M103.871 26.08V25.68H113.031V34.64C112.311 35.3333 111.498 35.92 110.591 36.4C109.711 36.88 108.778 37.28 107.791 37.6C106.831 37.8933 105.858 38.12 104.871 38.28C103.911 38.44 102.978 38.52 102.071 38.52C100.498 38.52 99.0179 38.3067 97.6312 37.88C96.2445 37.4267 94.9912 36.7867 93.8712 35.96C92.7779 35.1067 91.8312 34.0667 91.0312 32.84C90.2579 31.6133 89.6579 30.2267 89.2312 28.68C88.8045 27.1067 88.5912 25.36 88.5912 23.44C88.5912 21.2533 88.9112 19.28 89.5512 17.52C90.2179 15.7333 91.1379 14.2133 92.3112 12.96C93.5112 11.68 94.9379 10.7067 96.5912 10.04C98.2712 9.34667 100.138 9 102.191 9C103.365 9 104.471 9.09333 105.511 9.28C106.551 9.44 107.538 9.68 108.471 10C109.405 10.32 110.271 10.6933 111.071 11.12C111.871 11.5467 112.605 12.0133 113.271 12.52L111.151 22.56H110.471L109.871 17.64C109.685 16.1733 109.351 14.92 108.871 13.88C108.391 12.84 107.778 12.0133 107.031 11.4C106.311 10.76 105.458 10.2933 104.471 10C103.511 9.70667 102.458 9.56 101.311 9.56C100.085 9.56 98.9645 9.88 97.9512 10.52C96.9645 11.16 96.1112 12.0533 95.3912 13.2C94.6712 14.3467 94.1112 15.68 93.7112 17.2C93.3379 18.72 93.1512 20.36 93.1512 22.12C93.1512 23.64 93.2845 25.16 93.5512 26.68C93.8445 28.2 94.2579 29.64 94.7912 31C95.3245 32.3333 96.0045 33.52 96.8312 34.56C97.6579 35.6 98.6312 36.4267 99.7512 37.04C100.871 37.6267 102.111 37.92 103.471 37.92C104.218 37.92 105.005 37.84 105.831 37.68C106.685 37.4933 107.565 37.2133 108.471 36.84V26.84L103.871 26.08Z" fill="#3636FF"/>
<path d="M59.8278 37.9199V37.5199L62.6278 36.9999V13.2399C62.6278 12.6265 62.3744 12.0265 61.8678 11.4399C61.3611 10.8265 60.6811 10.3465 59.8278 9.99985V9.59985H66.0678L84.0678 32.4799H84.5878V19.7199C84.5878 18.7865 84.5078 17.8932 84.3478 17.0399C84.1878 16.1865 83.9211 15.3999 83.5478 14.6799C83.2011 13.9332 82.7611 13.2532 82.2278 12.6399C81.6944 12.0265 81.0544 11.5065 80.3078 11.0799C79.5878 10.6265 78.7611 10.2665 77.8278 9.99985V9.59985H88.2278V9.99985L85.1878 10.5199V37.9199H82.7078L63.7478 13.9199H63.2278V25.9999C63.2278 27.1199 63.3078 28.1732 63.4678 29.1599C63.6544 30.1199 63.9344 31.0265 64.3078 31.8799C64.6811 32.7065 65.1611 33.4799 65.7478 34.1999C66.3344 34.8932 67.0411 35.5199 67.8678 36.0799C68.6944 36.6399 69.6678 37.1199 70.7878 37.5199V37.9199H59.8278Z" fill="#3636FF"/>
<path d="M45.8828 9C47.8028 9 49.5494 9.30667 51.1228 9.92C52.6961 10.5333 54.0561 11.4533 55.2028 12.68C56.3761 13.9067 57.2694 15.44 57.8828 17.28C58.5228 19.0933 58.8428 21.2267 58.8428 23.68C58.8428 26.08 58.5361 28.2133 57.9228 30.08C57.3094 31.92 56.4294 33.4667 55.2828 34.72C54.1361 35.9733 52.7628 36.92 51.1628 37.56C49.5894 38.2 47.8294 38.52 45.8828 38.52C43.9361 38.52 42.1628 38.2 40.5628 37.56C38.9628 36.8933 37.5894 35.9333 36.4428 34.68C35.2961 33.4267 34.4028 31.88 33.7628 30.04C33.1494 28.1733 32.8428 26.04 32.8428 23.64C32.8428 21.3733 33.1494 19.3467 33.7628 17.56C34.3761 15.7467 35.2428 14.2133 36.3628 12.96C37.5094 11.68 38.8828 10.7067 40.4828 10.04C42.1094 9.34667 43.9094 9 45.8828 9ZM45.8828 9.52C44.5494 9.52 43.3628 9.81333 42.3228 10.4C41.2828 10.9867 40.4028 11.8667 39.6828 13.04C38.9894 14.2133 38.4561 15.68 38.0828 17.44C37.7361 19.2 37.5628 21.2533 37.5628 23.6C37.5628 25.9733 37.7361 28.0533 38.0828 29.84C38.4561 31.6267 38.9894 33.12 39.6828 34.32C40.4028 35.52 41.2828 36.4267 42.3228 37.04C43.3628 37.6533 44.5494 37.96 45.8828 37.96C47.2428 37.96 48.4294 37.6667 49.4428 37.08C50.4828 36.4933 51.3494 35.6 52.0428 34.4C52.7361 33.2 53.2561 31.7067 53.6028 29.92C53.9494 28.1067 54.1228 25.9867 54.1228 23.56C54.1228 21.2133 53.9494 19.16 53.6028 17.4C53.2561 15.64 52.7361 14.1733 52.0428 13C51.3494 11.8267 50.4828 10.96 49.4428 10.4C48.4294 9.81333 47.2428 9.52 45.8828 9.52Z" fill="#3636FF"/>
<path d="M11 37.9199V37.5199L13.44 37.1199V10.3999L11 9.99985V9.59985H20.52V9.99985L18.04 10.3999V37.3199H25.96C26.5733 37.3199 27.1067 37.1465 27.56 36.7999C28.04 36.4532 28.4533 35.9065 28.8 35.1599C29.1467 34.4132 29.4533 33.4265 29.72 32.1999L30.48 27.1599H31.16L32.32 37.9199H11Z" fill="#3636FF"/>
</svg>
